<svg xmlns="http://www.w3.org/2000/svg" viewBox="0 0 512 512" width="512" height="512">
  <defs>
    <linearGradient id="brand" x1="0" y1="0" x2="1" y2="1">
      <stop offset="0" stop-color="#6366f1"/>
      <stop offset="1" stop-color="#8b5cf6"/>
    </linearGradient>
    <pattern id="grid" x="76" y="88" width="44" height="44" patternUnits="userSpaceOnUse">
      <path d="M 44 0 H 0 V 44" fill="none" stroke="#ffffff" stroke-width="2" opacity="0.18"/>
    </pattern>
    <clipPath id="tile"><rect width="512" height="512" rx="116"/></clipPath>
  </defs>
  <g clip-path="url(#tile)">
    <rect width="512" height="512" fill="url(#brand)"/>
    <!-- the canvas: dark panel with whitish grid lines -->
    <rect x="76" y="98" width="360" height="336" rx="28" fill="#000000" opacity="0.18"/>
    <rect x="76" y="88" width="360" height="336" rx="28" fill="#241f52"/>
    <rect x="76" y="88" width="360" height="336" rx="28" fill="url(#grid)"/>
    <rect x="77.5" y="89.5" width="357" height="333" rx="26.5" fill="none"
          stroke="#ffffff" stroke-width="3" opacity="0.28"/>
  </g>
  <g transform="translate(256 254) scale(0.72) translate(-256 -262)">
    <circle cx="368" cy="128" r="13" fill="#fbbf24"/>
    <path d="M 132 352 L 172 172 L 280 272
             C 302 292 312 314 300 331
             C 284 352 228 352 212 331
             C 200 314 210 292 232 272
             L 340 172 L 380 352"
          fill="none" stroke="#ffffff" stroke-width="28"
          stroke-linecap="round" stroke-linejoin="round"/>
  </g>
</svg>
